# xmcd
#
# Track frame offsets:
#	150
#	15607
#	35480
#	47262
#	68055
#	87350
#	109295
#	129960
#	153152
#	171210
#	187700
#	210835
#	227545
#	239847
#	253417
#	270070
#	288227
#	303025
#	316832
#	330337
#
# Disc length: 4712
#
# Revision: 3
# Processed by: cddbd v1.5.1PL0 Copyright (c) Steve Scherf et al.
# Submitted via: NotifyCDPlayer(CDDB) 1.05
# Normalized: r1:TDELIM( - );r2:TSWAP
#
DISCID=f5126614
DTITLE=Various Artist - Line Dance Fever 2
DYEAR=1900
DGENRE=
TTITLE0=The Groove Grass Boyz - Macarena (Club Mix)
TTITLE1=Smokin' Armadillos - I'm A Cowboy (Dance Mix)
TTITLE2=Kimber Clayton - Ring of Fire (Dance Mix)
TTITLE3=Tim McGraw - Indian Outlaw (Dance Mix)
TTITLE4=David Kersch - Breaking Hearts and Taking Names (Dance Mix)
TTITLE5=Wynonna - To Be Loved By You
TTITLE6=Jeff Carson - Betty's Taking Judo (Dance Mix)
TTITLE7=Ronnie McDowell - Yippy Ti Yi Yo
TTITLE8=Baker and Myers - A Little Bit of Honey (Dance Mix)
TTITLE9=Junior Brown - Surf Medley (Edit)
TTITLE10=Hank Williams Jr. - A Little Less Talk (Dance Mix)
TTITLE11=LeAnn Rimes - One Way Ticket
TTITLE12=JoDee Messina - Do You Wanna Make Something Of It
TTITLE13=Boy Howdy - Bring On The Teardrops
TTITLE14=Philip Claypool - Mile Out Of Memphis
TTITLE15=Sawyer Brown - Round Here
TTITLE16=Delbert McClinton - Why Me?
TTITLE17=Jeff Moore - She's Over You
TTITLE18=Ruby Lovette - He's Your Problem Now
TTITLE19=Hal Ketchum - Hearts Are Gonna Roll (Dance Mix)
EXTD=
EXTT0=
EXTT1=
EXTT2=
EXTT3=
EXTT4=
EXTT5=
EXTT6=
EXTT7=
EXTT8=
EXTT9=
EXTT10=
EXTT11=
EXTT12=
EXTT13=
EXTT14=
EXTT15=
EXTT16=
EXTT17=
EXTT18=
EXTT19=
PLAYORDER=
